<svg width="960" height="720" viewBox="0 0 960 720" fill="none" xmlns="http://www.w3.org/2000/svg">
  <rect width="960" height="720" rx="36" fill="#F6F9FF"/>
  <circle cx="788" cy="126" r="66" fill="#D7E7FF"/>
  <circle cx="170" cy="126" r="52" fill="#E5F3DA"/>
  <rect x="84" y="180" width="792" height="394" rx="32" fill="#FFFFFF"/>
  <rect x="128" y="234" width="300" height="84" rx="26" fill="#EAF4FF"/>
  <rect x="532" y="250" width="252" height="78" rx="26" fill="#153A64"/>
  <rect x="128" y="348" width="350" height="84" rx="26" fill="#EFF6FF"/>
  <rect x="562" y="366" width="222" height="74" rx="26" fill="#DCEEFF"/>
  <rect x="128" y="462" width="236" height="72" rx="26" fill="#EAF7EA"/>
  <circle cx="706" cy="504" r="78" fill="#EAF4FF"/>
  <rect x="674" y="454" width="64" height="104" rx="32" fill="#1D4ED8"/>
  <rect x="650" y="552" width="112" height="22" rx="11" fill="#153A64"/>
  <path d="M618 502C618 550 656 590 706 590C756 590 794 550 794 502" stroke="#4C8DDA" stroke-width="16" stroke-linecap="round"/>
  <path d="M452 234C494 234 528 270 528 314C528 358 494 394 452 394" stroke="#7AB85A" stroke-width="14" stroke-linecap="round" stroke-dasharray="12 16"/>
  <path d="M842 470C874 470 900 496 900 528C900 560 874 586 842 586" stroke="#4C8DDA" stroke-width="14" stroke-linecap="round" stroke-dasharray="12 16"/>
  <text x="480" y="646" text-anchor="middle" font-family="Segoe UI, Arial, sans-serif" font-size="34" font-weight="700" fill="#153A64">हिंदी वॉइस सहायक, साफ और सरल बातचीत</text>
</svg>
