<svg width="960" height="720" viewBox="0 0 960 720" fill="none" xmlns="http://www.w3.org/2000/svg">
  <rect width="960" height="720" rx="36" fill="#EEF8F4"/>
  <circle cx="170" cy="124" r="52" fill="#D4EBFF"/>
  <circle cx="768" cy="124" r="68" fill="#FFF0BC"/>
  <rect x="0" y="558" width="960" height="162" fill="#BFE1C7"/>
  <rect x="118" y="228" width="722" height="268" rx="28" fill="#FFFFFF" opacity="0.8"/>
  <rect x="166" y="278" width="628" height="150" rx="20" fill="#D7ECFF"/>
  <rect x="196" y="306" width="224" height="18" rx="9" fill="#86B5E6"/>
  <rect x="196" y="344" width="312" height="18" rx="9" fill="#86B5E6"/>
  <rect x="196" y="382" width="176" height="18" rx="9" fill="#86B5E6"/>
  <circle cx="330" cy="242" r="48" fill="#F1BF97"/>
  <path d="M286 228C286 194 314 166 348 166C382 166 410 192 410 226V240H286V228Z" fill="#284B73"/>
  <rect x="292" y="290" width="78" height="110" rx="24" fill="#4F93DE"/>
  <rect x="308" y="400" width="18" height="92" rx="9" fill="#4A6482"/>
  <rect x="338" y="400" width="18" height="92" rx="9" fill="#4A6482"/>
  <circle cx="502" cy="254" r="50" fill="#E9AE87"/>
  <path d="M454 238C454 202 484 176 520 176C556 176 586 204 586 240V250H454V238Z" fill="#7C3E54"/>
  <rect x="462" y="304" width="86" height="122" rx="26" fill="#E17B48"/>
  <rect x="480" y="426" width="18" height="96" rx="9" fill="#506685"/>
  <rect x="512" y="426" width="18" height="96" rx="9" fill="#506685"/>
  <circle cx="644" cy="262" r="46" fill="#F1BF97"/>
  <path d="M602 248C602 216 628 190 660 190C692 190 718 214 718 246V258H602V248Z" fill="#3B7C47"/>
  <rect x="608" y="306" width="74" height="108" rx="24" fill="#7AB85A"/>
  <rect x="624" y="414" width="16" height="90" rx="8" fill="#52697F"/>
  <rect x="650" y="414" width="16" height="90" rx="8" fill="#52697F"/>
  <path d="M772 280H838V406H772C742 406 718 378 718 344C718 310 742 280 772 280Z" fill="#FFF4BF"/>
  <rect x="774" y="296" width="50" height="94" rx="8" fill="#EFC64D"/>
  <text x="480" y="644" text-anchor="middle" font-family="Segoe UI, Arial, sans-serif" font-size="34" font-weight="700" fill="#153A64">बच्चे, छात्र और उज्ज्वल भविष्य</text>
</svg>
