<svg width="256" height="320" viewBox="0 0 256 320" fill="none" xmlns="http://www.w3.org/2000/svg">
  <rect width="256" height="320" rx="28" fill="#123D73"/>

  <g transform="translate(128 28)" stroke="#F8FBFF" fill="none" stroke-linecap="round" stroke-linejoin="round">
    <path d="M0 0L9 18H-9L0 0Z" fill="#F8FBFF" stroke="none"/>

    <g transform="translate(0 18)">
      <path d="M-18 14C-18 2 -8 -8 4 -8C16 -8 26 2 26 14C26 26 16 36 4 36C-8 36 -18 26 -18 14Z" stroke-width="4"/>
      <path d="M-68 22C-68 10 -58 0 -46 0C-34 0 -24 10 -24 22C-24 34 -34 44 -46 44C-58 44 -68 34 -68 22Z" stroke-width="4"/>
      <path d="M24 22C24 10 34 0 46 0C58 0 68 10 68 22C68 34 58 44 46 44C34 44 24 34 24 22Z" stroke-width="4"/>

      <path d="M-8 16H12" stroke-width="3"/>
      <path d="M-54 28H-38" stroke-width="3"/>
      <path d="M38 28H54" stroke-width="3"/>

      <path d="M-2 0L2 0" stroke-width="3"/>
      <path d="M-50 10L-42 10" stroke-width="3"/>
      <path d="M42 10L50 10" stroke-width="3"/>
    </g>

    <path d="M-78 106H78" stroke-width="7"/>
    <path d="M-60 106C-56 92 -44 82 -28 82H28C44 82 56 92 60 106" stroke-width="7"/>

    <path d="M-60 106L-72 174" stroke-width="5"/>
    <path d="M-30 106L-42 176" stroke-width="5"/>
    <path d="M30 106L42 176" stroke-width="5"/>
    <path d="M60 106L72 174" stroke-width="5"/>

    <path d="M-62 108C-52 90 -48 76 -50 58" stroke-width="3"/>
    <path d="M62 108C52 90 48 76 50 58" stroke-width="3"/>
    <path d="M-32 110C-20 88 -18 72 -22 56" stroke-width="3"/>
    <path d="M32 110C20 88 18 72 22 56" stroke-width="3"/>

    <g transform="translate(0 160)">
      <circle cx="0" cy="18" r="30" stroke-width="5"/>
      <circle cx="0" cy="18" r="4" fill="#F8FBFF" stroke="none"/>
      <path d="M0 -8V44" stroke-width="3"/>
      <path d="M-30 18H30" stroke-width="3"/>
      <path d="M-22 -2L22 38" stroke-width="2.4"/>
      <path d="M22 -2L-22 38" stroke-width="2.4"/>
      <path d="M-10 -8L10 44" stroke-width="2"/>
      <path d="M10 -8L-10 44" stroke-width="2"/>
    </g>

    <path d="M-92 232C-74 214 -54 206 -26 206H26C54 206 74 214 92 232" stroke-width="4"/>
    <path d="M-96 232H96" stroke-width="8"/>
    <path d="M-86 220H-48" stroke-width="3"/>
    <path d="M48 220H86" stroke-width="3"/>
    <path d="M-84 210L-62 198" stroke-width="3"/>
    <path d="M84 210L62 198" stroke-width="3"/>
    <path d="M-76 232C-76 214 -80 194 -92 182" stroke-width="4"/>
    <path d="M76 232C76 214 80 194 92 182" stroke-width="4"/>
  </g>

  <text x="128" y="294" text-anchor="middle" font-family="Noto Sans Devanagari, Mangal, Segoe UI, sans-serif" font-size="28" font-weight="800" fill="#F8FBFF">
    सत्यमेव जयते
  </text>
</svg>
